<svg width="50" height="61" viewBox="0 0 50 61" fill="none" xmlns="http://www.w3.org/2000/svg">
<path d="M7.93752 15.3878C5.72655 12.9282 0.0497406 16.3359 2.43493 18.9894C3.98225 20.7108 4.62859 21.0514 6.48564 19.3821C7.77977 18.2189 6.38485 16.7835 7.56567 15.7221" stroke="#F47B50" stroke-width="2" stroke-linecap="round"/>
<path d="M17.319 7.03708C22.4598 7.09922 24.4917 1.12334 18.9459 1.05631C15.3482 1.01283 14.28 1.23345 14.2521 3.53823C14.2327 5.14436 17.3423 5.11007 17.3246 6.57558" stroke="#F47B50" stroke-width="2" stroke-linecap="round"/>
<path d="M28.3557 10.5051C31.0159 8.54002 28.1677 2.56281 25.2979 4.68277C23.4362 6.05803 23.0352 6.66875 24.5189 8.67721C25.5528 10.0768 27.1152 8.82588 28.0586 10.103" stroke="#F47B50" stroke-width="2" stroke-linecap="round"/>
<path d="M12.7516 10.5971C14.9195 5.93533 10.3052 1.6285 7.96656 6.65758C6.44943 9.92005 6.2119 10.9846 8.30192 11.9565C9.75839 12.6338 11.0042 9.78448 12.3331 10.4025" stroke="#F47B50" stroke-width="2" stroke-linecap="round"/>
<path d="M23.8653 12.1877C21.8717 8.41327 17.5948 9.77923 14.5304 11.5381C13.2729 12.2599 11.9659 14.5346 11.1761 15.7278C10.8788 16.177 11.1429 16.2624 11.0168 16.6593C10.8531 17.1745 10.1728 17.5272 9.95408 18.0679C9.38273 19.4807 9.35672 20.7484 9.10856 22.2346C8.41832 26.3683 9.47337 30.0451 11.3831 33.6608C12.2369 35.2774 12.5407 36.9054 14.5493 36.4732C15.7989 36.2043 17.0885 36.2313 16.7113 34.4013C16.593 33.8276 17.6794 31.4512 18.0531 31.2538C19.4541 30.5139 20.4096 29.2652 21.7538 28.5552C24.1074 27.3121 25.2647 26.7811 27.8019 27.6754C29.0091 28.1009 32.8373 29.3594 33.6933 27.3744C34.4274 25.6722 33.8418 25.2848 33.3485 23.3405C32.6701 20.6669 32.1379 19.0451 30.4896 16.8936C30.2378 16.565 29.6848 16.5167 29.3139 16.378C28.8076 16.1886 28.6386 15.4371 28.3815 15.0104C28.2292 14.7577 26.9323 13.9462 26.7263 14.0246C26.1799 14.2325 25.6072 13.2785 25.3668 12.8826C25.0475 12.3568 24.0866 12.6066 23.7117 11.8968" stroke="#F47B50" stroke-width="2" stroke-linecap="round"/>
<path d="M33.9757 36.9386C34.7697 34.4577 30.3658 32.1291 29.5091 34.8055C28.9534 36.5417 28.972 37.1097 30.7801 37.641C32.0401 38.0112 32.4639 36.4944 33.6136 36.8322" stroke="#F47B50" stroke-width="2" stroke-linecap="round"/>
<path d="M43.0554 39.6568C44.9575 43.0739 49.6853 41.9306 47.6334 38.2442C46.3022 35.8528 45.7522 35.2398 44.2145 36.1793C43.1429 36.8341 44.3411 38.8712 43.3633 39.4686" stroke="#F47B50" stroke-width="2" stroke-linecap="round"/>
<path d="M44.9293 48.3791C47.2371 49.3173 50.1211 44.9541 47.6315 43.942C46.0165 43.2854 45.4602 43.2747 44.6902 45.0882C44.1536 46.352 45.5731 46.8628 45.0835 48.016" stroke="#F47B50" stroke-width="2" stroke-linecap="round"/>
<path d="M38.9699 38.1233C42.8784 37.6159 43.9879 32.7819 39.7715 33.3293C37.0362 33.6844 36.241 33.9702 36.3871 35.7529C36.4888 36.9952 38.8478 36.6328 38.9407 37.7664" stroke="#F47B50" stroke-width="2" stroke-linecap="round"/>
<path d="M42.1171 46.1161C43.8645 43.2322 41.3426 40.9785 39.0188 39.688C38.0652 39.1584 36.0639 39.2416 34.9746 39.2165C34.5646 39.207 34.6079 39.4168 34.2972 39.4986C33.8939 39.6047 33.4031 39.3025 32.9621 39.383C31.81 39.5932 30.9601 40.103 29.8815 40.5569C26.8816 41.8197 24.844 44.0439 23.1701 46.8065C22.4216 48.0416 21.4577 48.9187 22.5033 50.0641C23.1539 50.7767 23.6235 51.6386 24.6935 50.6292C25.029 50.3127 27.0143 50.0418 27.2863 50.2062C28.3062 50.8229 29.4948 50.9343 30.4734 51.5259C32.1868 52.5619 32.9761 53.1047 33.3426 55.1502C33.517 56.1234 34.1302 59.1719 35.7691 58.9116C37.1745 58.6884 37.2098 58.141 38.3117 57.0075C39.8268 55.4488 40.7003 54.4236 41.5028 52.4421C41.6254 52.1394 41.4484 51.7545 41.4001 51.4521C41.3342 51.0394 41.7682 50.6156 41.9538 50.2686C42.0637 50.0631 42.1112 48.8703 41.9814 48.767C41.6371 48.4929 42.0527 47.7186 42.2242 47.3955C42.4519 46.9663 41.9231 46.4362 42.2517 45.8939" stroke="#F47B50" stroke-width="2" stroke-linecap="round"/>
</svg>
