<svg width="75" height="102" viewBox="0 0 75 102" fill="none" xmlns="http://www.w3.org/2000/svg">
<path d="M11.5225 26.349C8.169 22.1864 -0.441306 27.9535 3.17643 32.4441C5.52333 35.3572 6.50366 35.9337 9.32035 33.1087C11.2832 31.14 9.16748 28.7109 10.9585 26.9147" stroke="#F47B50" stroke-width="3" stroke-linecap="round"/>
<path d="M25.7518 12.2168C33.5491 12.3219 36.6311 2.20873 28.2194 2.0953C22.7626 2.02171 21.1424 2.39508 21.1001 6.29553C21.0707 9.01364 25.7872 8.95561 25.7603 11.4357" stroke="#F47B50" stroke-width="3" stroke-linecap="round"/>
<path d="M42.4917 18.0859C46.5266 14.7602 42.2067 4.6448 37.8538 8.23247C35.0301 10.5599 34.4219 11.5934 36.6722 14.9924C38.2404 17.361 40.6102 15.244 42.0411 17.4053" stroke="#F47B50" stroke-width="3" stroke-linecap="round"/>
<path d="M18.8242 18.2415C22.1123 10.3522 15.1137 3.06364 11.5665 11.5745C9.26539 17.0957 8.90513 18.8973 12.0752 20.5421C14.2843 21.6883 16.1738 16.8663 18.1895 17.9121" stroke="#F47B50" stroke-width="3" stroke-linecap="round"/>
<path d="M35.6809 20.9333C32.6572 14.5457 26.1702 16.8574 21.5223 19.8339C19.6149 21.0554 17.6325 24.905 16.4346 26.9243C15.9836 27.6845 16.3843 27.829 16.193 28.5007C15.9447 29.3727 14.9128 29.9695 14.5811 30.8846C13.7145 33.2754 13.6751 35.4209 13.2987 37.936C12.2518 44.9315 13.852 51.154 16.7486 57.2729C18.0437 60.0087 18.5043 62.7638 21.5509 62.0324C23.4462 61.5774 25.4022 61.623 24.8301 58.526C24.6507 57.5551 26.2985 53.5335 26.8653 53.1995C28.9903 51.9472 30.4395 49.834 32.4784 48.6325C36.0482 46.5287 37.8035 45.6302 41.6517 47.1437C43.4828 47.8638 49.2893 49.9935 50.5877 46.6342C51.7011 43.7535 50.8128 43.0979 50.0646 39.8075C49.0357 35.2829 48.2285 32.5382 45.7284 28.8973C45.3465 28.3412 44.5077 28.2594 43.9451 28.0246C43.1773 27.7042 42.9209 26.4324 42.5309 25.7103C42.2999 25.2827 40.3329 23.9093 40.0204 24.0419C39.1917 24.3938 38.323 22.7794 37.9584 22.1093C37.4741 21.2194 36.0166 21.6422 35.4479 20.441" stroke="#F47B50" stroke-width="3" stroke-linecap="round"/>
<path d="M51.0159 62.82C52.2203 58.6216 45.5406 54.6808 44.2412 59.2101C43.3984 62.1483 43.4266 63.1095 46.169 64.0086C48.0801 64.6352 48.7229 62.0683 50.4667 62.64" stroke="#F47B50" stroke-width="3" stroke-linecap="round"/>
<path d="M64.7876 67.42C67.6726 73.203 74.8436 71.2682 71.7312 65.0296C69.7122 60.9824 68.878 59.945 66.5457 61.5351C64.9203 62.6431 66.7377 66.0906 65.2546 67.1017" stroke="#F47B50" stroke-width="3" stroke-linecap="round"/>
<path d="M67.6298 82.1811C71.1301 83.7688 75.5044 76.3849 71.7284 74.6721C69.2788 73.5609 68.4351 73.5428 67.2671 76.6119C66.4533 78.7507 68.6063 79.6151 67.8637 81.5666" stroke="#F47B50" stroke-width="3" stroke-linecap="round"/>
<path d="M58.5909 64.825C64.5191 63.9662 66.202 55.7855 59.8068 56.7119C55.658 57.3129 54.4519 57.7965 54.6734 60.8134C54.8278 62.9159 58.4057 62.3025 58.5465 64.2209" stroke="#F47B50" stroke-width="3" stroke-linecap="round"/>
<path d="M63.3644 78.3514C66.0148 73.4709 62.1898 69.6568 58.6652 67.4729C57.2187 66.5766 54.1832 66.7174 52.5311 66.6749C51.9092 66.659 51.9748 67.0139 51.5036 67.1523C50.8919 67.3319 50.1474 66.8205 49.4785 66.9567C47.7311 67.3125 46.4421 68.1751 44.8061 68.9434C40.2559 71.0804 37.1655 74.8445 34.6265 79.5197C33.4913 81.61 32.0292 83.0942 33.6152 85.0327C34.6019 86.2387 35.3142 87.6973 36.9372 85.989C37.446 85.4535 40.4572 84.9949 40.8698 85.2732C42.4168 86.3169 44.2196 86.5053 45.7039 87.5066C48.3027 89.2598 49.4998 90.1784 50.0557 93.64C50.3202 95.2871 51.2502 100.446 53.7361 100.006C55.8677 99.6279 55.9213 98.7016 57.5926 96.7832C59.8907 94.1454 61.2155 92.4105 62.4327 89.057C62.6186 88.5448 62.3501 87.8934 62.2769 87.3817C62.1769 86.6833 62.8353 85.966 63.1167 85.3788C63.2834 85.0311 63.3554 83.0124 63.1585 82.8375C62.6363 82.3738 63.2667 81.0634 63.5268 80.5165C63.8723 79.7902 63.0702 78.8931 63.5686 77.9753" stroke="#F47B50" stroke-width="3" stroke-linecap="round"/>
</svg>
