<svg width="73" height="73" viewBox="0 0 73 73" fill="none" xmlns="http://www.w3.org/2000/svg">
<path d="M10.35 18.5463C7.05148 15.5467 -1.41765 19.7025 2.14077 22.9385C4.44919 25.0378 5.41345 25.4532 8.18396 23.4175C10.1146 21.9988 8.03359 20.2484 9.79524 18.9539" stroke="#F47B50" stroke-width="2" stroke-linecap="round"/>
<path d="M24.346 8.36235C32.0155 8.43812 35.0469 1.1504 26.7731 1.06866C21.4058 1.01563 19.8122 1.28469 19.7706 4.09541C19.7416 6.05413 24.3808 6.01231 24.3544 7.79953" stroke="#F47B50" stroke-width="2" stroke-linecap="round"/>
<path d="M40.8115 12.5917C44.7802 10.1952 40.5311 2.90584 36.2496 5.49117C33.4722 7.16833 32.8739 7.91313 35.0874 10.3625C36.6299 12.0694 38.9608 10.5438 40.3682 12.1012" stroke="#F47B50" stroke-width="2" stroke-linecap="round"/>
<path d="M17.532 12.7038C20.7662 7.01872 13.8823 1.76644 10.3933 7.89952C8.12988 11.8782 7.77552 13.1764 10.8936 14.3617C13.0665 15.1877 14.925 11.7128 16.9076 12.4665" stroke="#F47B50" stroke-width="2" stroke-linecap="round"/>
<path d="M34.1123 14.6437C31.1382 10.0407 24.7575 11.7065 20.1858 13.8514C18.3097 14.7317 16.3598 17.5058 15.1815 18.9609C14.738 19.5087 15.1321 19.6128 14.9439 20.0969C14.6996 20.7253 13.6847 21.1553 13.3584 21.8148C12.506 23.5376 12.4673 25.0837 12.097 26.8961C11.0673 31.9372 12.6413 36.4212 15.4904 40.8306C16.7642 42.8021 17.2173 44.7875 20.2139 44.2604C22.0782 43.9325 24.0021 43.9654 23.4393 41.7336C23.2629 41.034 24.8837 38.136 25.4412 37.8953C27.5313 36.9928 28.9569 35.47 30.9623 34.6042C34.4735 33.0882 36.2001 32.4407 39.9852 33.5313C41.7863 34.0502 47.4975 35.585 48.7746 33.1642C49.8698 31.0883 48.9961 30.6159 48.2601 28.2447C47.2481 24.9843 46.4542 23.0064 43.995 20.3827C43.6194 19.982 42.7944 19.923 42.241 19.7538C41.4857 19.5229 41.2336 18.6065 40.8499 18.0861C40.6228 17.7779 38.688 16.7882 38.3806 16.8838C37.5655 17.1374 36.711 15.974 36.3524 15.4912C35.8761 14.8499 34.4424 15.1546 33.8831 14.2889" stroke="#F47B50" stroke-width="2" stroke-linecap="round"/>
<path d="M49.1958 44.8279C50.3805 41.8024 43.8103 38.9627 42.5323 42.2265C41.7032 44.3439 41.731 45.0365 44.4284 45.6844C46.3082 46.1359 46.9405 44.2862 48.6557 44.6982" stroke="#F47B50" stroke-width="2" stroke-linecap="round"/>
<path d="M62.7417 48.1427C65.5794 52.31 72.6328 50.9158 69.5715 46.4201C67.5856 43.5037 66.7651 42.7561 64.471 43.9019C62.8723 44.7004 64.6598 47.1847 63.2011 47.9133" stroke="#F47B50" stroke-width="2" stroke-linecap="round"/>
<path d="M65.5374 58.7799C68.9802 59.924 73.2829 54.603 69.5687 53.3687C67.1593 52.568 66.3294 52.555 65.1806 54.7666C64.3801 56.3078 66.4979 56.9307 65.7674 58.337" stroke="#F47B50" stroke-width="2" stroke-linecap="round"/>
<path d="M56.6466 46.2728C62.4776 45.6539 64.133 39.7587 57.8425 40.4263C53.7618 40.8594 52.5755 41.2079 52.7934 43.382C52.9452 44.897 56.4645 44.455 56.603 45.8374" stroke="#F47B50" stroke-width="2" stroke-linecap="round"/>
<path d="M61.3418 56.02C63.9488 52.5031 60.1865 49.7546 56.7197 48.1808C55.2969 47.5349 52.3112 47.6364 50.6862 47.6058C50.0745 47.5943 50.139 47.8501 49.6755 47.9498C49.0738 48.0792 48.3416 47.7107 47.6837 47.8088C45.9649 48.0652 44.697 48.6869 43.0879 49.2405C38.6123 50.7804 35.5725 53.4929 33.0752 56.8619C31.9586 58.3683 30.5205 59.4378 32.0805 60.8347C33.051 61.7037 33.7516 62.7549 35.3479 61.5238C35.8484 61.1379 38.8102 60.8075 39.2161 61.008C40.7377 61.7601 42.5109 61.8959 43.9709 62.6175C46.5271 63.8809 47.7045 64.5428 48.2513 67.0373C48.5115 68.2242 49.4263 71.9419 51.8714 71.6244C53.9681 71.3522 54.0208 70.6847 55.6647 69.3023C57.9251 67.4015 59.2282 66.1513 60.4255 63.7347C60.6083 63.3656 60.3442 62.8961 60.2722 62.5274C60.1739 62.0242 60.8214 61.5073 61.0983 61.0841C61.2622 60.8335 61.333 59.3788 61.1394 59.2528C60.6257 58.9186 61.2458 57.9743 61.5016 57.5803C61.8414 57.0569 61.0525 56.4104 61.5427 55.749" stroke="#F47B50" stroke-width="2" stroke-linecap="round"/>
</svg>
