<svg width="49" height="61" viewBox="0 0 49 61" fill="none" xmlns="http://www.w3.org/2000/svg">
<path d="M6.93752 15.3878C4.72655 12.9282 -0.950259 16.3359 1.43493 18.9894C2.98225 20.7108 3.62859 21.0514 5.48564 19.3821C6.77977 18.2189 5.38485 16.7835 6.56567 15.7221" stroke="#F47B50" stroke-linecap="round"/>
<path d="M16.319 7.03708C21.4598 7.09922 23.4917 1.12334 17.9459 1.05631C14.3482 1.01283 13.28 1.23345 13.2521 3.53823C13.2327 5.14436 16.3423 5.11007 16.3246 6.57558" stroke="#F47B50" stroke-linecap="round"/>
<path d="M27.3557 10.5051C30.0159 8.54002 27.1677 2.56281 24.2979 4.68277C22.4362 6.05803 22.0352 6.66875 23.5189 8.67721C24.5528 10.0768 26.1152 8.82588 27.0586 10.103" stroke="#F47B50" stroke-linecap="round"/>
<path d="M11.7516 10.5971C13.9195 5.93533 9.30522 1.6285 6.96656 6.65758C5.44943 9.92005 5.2119 10.9846 7.30192 11.9565C8.75839 12.6338 10.0042 9.78448 11.3331 10.4025" stroke="#F47B50" stroke-linecap="round"/>
<path d="M22.8653 12.1877C20.8717 8.41327 16.5948 9.77923 13.5304 11.5381C12.2729 12.2599 10.9659 14.5346 10.1761 15.7278C9.87877 16.177 10.1429 16.2624 10.0168 16.6593C9.85308 17.1745 9.17278 17.5272 8.95408 18.0679C8.38273 19.4807 8.35672 20.7484 8.10856 22.2346C7.41832 26.3683 8.47337 30.0451 10.3831 33.6608C11.2369 35.2774 11.5407 36.9054 13.5493 36.4732C14.7989 36.2043 16.0885 36.2313 15.7113 34.4013C15.593 33.8276 16.6794 31.4512 17.0531 31.2538C18.4541 30.5139 19.4096 29.2652 20.7538 28.5552C23.1074 27.3121 24.2647 26.7811 26.8019 27.6754C28.0091 28.1009 31.8373 29.3594 32.6933 27.3744C33.4274 25.6722 32.8418 25.2848 32.3485 23.3405C31.6701 20.6669 31.1379 19.0451 29.4896 16.8936C29.2378 16.565 28.6848 16.5167 28.3139 16.378C27.8076 16.1886 27.6386 15.4371 27.3815 15.0104C27.2292 14.7577 25.9323 13.9462 25.7263 14.0246C25.1799 14.2325 24.6072 13.2785 24.3668 12.8826C24.0475 12.3568 23.0866 12.6066 22.7117 11.8968" stroke="#F47B50" stroke-linecap="round"/>
<path d="M32.9757 36.9386C33.7697 34.4577 29.3658 32.1291 28.5091 34.8055C27.9534 36.5417 27.972 37.1097 29.7801 37.641C31.0401 38.0112 31.4639 36.4944 32.6136 36.8322" stroke="#F47B50" stroke-linecap="round"/>
<path d="M42.0554 39.6568C43.9575 43.0739 48.6853 41.9306 46.6334 38.2442C45.3022 35.8528 44.7522 35.2398 43.2145 36.1793C42.1429 36.8341 43.3411 38.8712 42.3633 39.4686" stroke="#F47B50" stroke-linecap="round"/>
<path d="M43.9293 48.3791C46.2371 49.3173 49.1211 44.9541 46.6315 43.942C45.0165 43.2854 44.4602 43.2747 43.6902 45.0882C43.1536 46.352 44.5731 46.8628 44.0835 48.016" stroke="#F47B50" stroke-linecap="round"/>
<path d="M37.9699 38.1233C41.8784 37.6159 42.9879 32.7819 38.7715 33.3293C36.0362 33.6844 35.241 33.9702 35.3871 35.7529C35.4888 36.9952 37.8478 36.6328 37.9407 37.7664" stroke="#F47B50" stroke-linecap="round"/>
<path d="M41.1171 46.1161C42.8645 43.2322 40.3426 40.9785 38.0188 39.688C37.0652 39.1584 35.0639 39.2416 33.9746 39.2165C33.5646 39.207 33.6079 39.4168 33.2972 39.4986C32.8939 39.6047 32.4031 39.3025 31.9621 39.383C30.81 39.5932 29.9601 40.103 28.8815 40.5569C25.8816 41.8197 23.844 44.0439 22.1701 46.8065C21.4216 48.0416 20.4577 48.9187 21.5033 50.0641C22.1539 50.7767 22.6235 51.6386 23.6935 50.6292C24.029 50.3127 26.0143 50.0418 26.2863 50.2062C27.3062 50.8229 28.4948 50.9343 29.4734 51.5259C31.1868 52.5619 31.9761 53.1047 32.3426 55.1502C32.517 56.1234 33.1302 59.1719 34.7691 58.9116C36.1745 58.6884 36.2098 58.141 37.3117 57.0075C38.8268 55.4488 39.7003 54.4236 40.5028 52.4421C40.6254 52.1394 40.4484 51.7545 40.4001 51.4521C40.3342 51.0394 40.7682 50.6156 40.9538 50.2686C41.0637 50.0631 41.1112 48.8703 40.9814 48.767C40.6371 48.4929 41.0527 47.7186 41.2242 47.3955C41.4519 46.9663 40.9231 46.4362 41.2517 45.8939" stroke="#F47B50" stroke-linecap="round"/>
</svg>
