<svg width="103" height="141" viewBox="0 0 103 141" fill="none" xmlns="http://www.w3.org/2000/svg">
<path d="M15.3231 35.8741C10.6707 30.0832 -1.27459 38.1063 3.7444 44.3535C7.00032 48.4063 8.36037 49.2082 12.268 45.2782C14.9912 42.5394 12.056 39.16 14.5407 36.6611" stroke="#F47B50" stroke-width="3" stroke-linecap="round"/>
<path d="M35.0639 16.2135C45.8814 16.3598 50.157 2.29042 38.4873 2.13261C30.9168 2.03024 28.6691 2.54966 28.6105 7.97593C28.5696 11.7573 35.1129 11.6766 35.0757 15.1269" stroke="#F47B50" stroke-width="3" stroke-linecap="round"/>
<path d="M58.2877 24.3785C63.8854 19.7519 57.8922 5.67945 51.8534 10.6706C47.9359 13.9084 47.0922 15.3463 50.2141 20.0749C52.3897 23.3702 55.6774 20.425 57.6625 23.4317" stroke="#F47B50" stroke-width="3" stroke-linecap="round"/>
<path d="M25.4531 24.595C30.0147 13.6196 20.3053 3.47975 15.3842 15.32C12.1918 23.001 11.692 25.5074 16.0899 27.7956C19.1547 29.3902 21.776 22.6818 24.5725 24.1368" stroke="#F47B50" stroke-width="3" stroke-linecap="round"/>
<path d="M48.8389 28.3398C44.644 19.4535 35.6443 22.6695 29.1962 26.8104C26.55 28.5097 23.7998 33.8652 22.1379 36.6745C21.5122 37.7321 22.0681 37.9331 21.8027 38.8676C21.4582 40.0807 20.0267 40.9109 19.5665 42.1841C18.3642 45.5101 18.3095 48.4948 17.7873 51.9938C16.3349 61.726 18.5549 70.3826 22.5734 78.8952C24.3702 82.7012 25.0092 86.5342 29.2358 85.5166C31.8653 84.8836 34.5789 84.947 33.7851 80.6386C33.5363 79.2878 35.8224 73.693 36.6087 73.2284C39.5567 71.4862 41.5674 68.5463 44.3959 66.8747C49.3484 63.948 51.7836 62.698 57.1224 64.8035C59.6627 65.8053 67.7181 68.7682 69.5194 64.0947C71.0641 60.0872 69.8317 59.1751 68.7937 54.5974C67.3664 48.303 66.2465 44.4846 62.778 39.4194C62.2482 38.6457 61.0845 38.5319 60.304 38.2053C59.2388 37.7595 58.8831 35.9902 58.342 34.9855C58.0216 34.3907 55.2926 32.48 54.8591 32.6646C53.7094 33.1541 52.5043 30.9081 51.9985 29.976C51.3266 28.7379 49.3045 29.3261 48.5156 27.655" stroke="#F47B50" stroke-width="3" stroke-linecap="round"/>
<path d="M70.1135 86.6123C71.7844 80.7715 62.5174 75.2891 60.7148 81.5902C59.5455 85.6779 59.5846 87.0151 63.3893 88.2659C66.0406 89.1376 66.9324 85.5665 69.3516 86.3619" stroke="#F47B50" stroke-width="3" stroke-linecap="round"/>
<path d="M89.2194 93.0118C93.2218 101.057 103.17 98.3654 98.8525 89.6862C96.0514 84.0559 94.8942 82.6127 91.6584 84.8247C89.4035 86.3662 91.9248 91.1624 89.8673 92.5689" stroke="#F47B50" stroke-width="3" stroke-linecap="round"/>
<path d="M93.1625 113.547C98.0185 115.756 104.087 105.484 98.8485 103.101C95.4501 101.555 94.2796 101.53 92.6593 105.799C91.5302 108.775 94.5172 109.977 93.487 112.692" stroke="#F47B50" stroke-width="3" stroke-linecap="round"/>
<path d="M80.6225 89.4016C88.8469 88.2069 91.1817 76.8259 82.3093 78.1147C76.5537 78.9508 74.8804 79.6236 75.1877 83.8208C75.4018 86.7457 80.3656 85.8923 80.561 88.5611" stroke="#F47B50" stroke-width="3" stroke-linecap="round"/>
<path d="M87.2449 108.219C90.9219 101.43 85.6153 96.1236 80.7256 93.0853C78.7189 91.8384 74.5076 92.0343 72.2156 91.9752C71.3528 91.953 71.4439 92.4468 70.7901 92.6393C69.9415 92.8893 68.9086 92.1777 67.9807 92.3672C65.5565 92.8622 63.7681 94.0623 61.4985 95.1312C55.1859 98.104 50.8984 103.341 47.3761 109.845C45.8012 112.753 43.7728 114.818 45.9731 117.514C47.342 119.192 48.3301 121.221 50.5817 118.845C51.2876 118.1 55.4651 117.462 56.0375 117.849C58.1837 119.301 60.6848 119.563 62.744 120.956C66.3494 123.395 68.0101 124.673 68.7813 129.489C69.1483 131.78 70.4386 138.957 73.8873 138.345C76.8446 137.819 76.9189 136.53 79.2375 133.862C82.4257 130.192 84.2638 127.778 85.9524 123.113C86.2103 122.4 85.8379 121.494 85.7362 120.782C85.5976 119.811 86.5109 118.813 86.9014 117.996C87.1326 117.512 87.2325 114.704 86.9594 114.461C86.2349 113.815 87.1095 111.992 87.4703 111.232C87.9495 110.221 86.8368 108.973 87.5283 107.696" stroke="#F47B50" stroke-width="3" stroke-linecap="round"/>
</svg>
