<svg width="61" height="65" viewBox="0 0 61 65" fill="none" xmlns="http://www.w3.org/2000/svg">
<path d="M28.1135 10.6123C29.7844 4.77149 20.5174 -0.710857 18.7148 5.59023C17.5455 9.67788 17.5846 11.0151 21.3893 12.2659C24.0406 13.1376 24.9324 9.56652 27.3516 10.3619" stroke="#F47B50" stroke-width="3" stroke-linecap="round"/>
<path d="M47.2194 17.0118C51.2218 25.0571 61.1703 22.3654 56.8525 13.6862C54.0514 8.05588 52.8942 6.61269 49.6584 8.82473C47.4035 10.3662 49.9248 15.1624 47.8673 16.5689" stroke="#F47B50" stroke-width="3" stroke-linecap="round"/>
<path d="M51.1625 37.5473C56.0185 39.7561 62.0871 29.4836 56.8485 27.1008C53.4501 25.555 52.2796 25.5298 50.6593 29.7995C49.5302 32.7749 52.5172 33.9775 51.487 36.6924" stroke="#F47B50" stroke-width="3" stroke-linecap="round"/>
<path d="M38.6225 13.4016C46.8469 12.2069 49.1817 0.825903 40.3093 2.11472C34.5537 2.9508 32.8804 3.6236 33.1877 7.82077C33.4018 10.7457 38.3656 9.89234 38.561 12.5611" stroke="#F47B50" stroke-width="3" stroke-linecap="round"/>
<path d="M45.2449 32.2194C48.9219 25.4297 43.6153 20.1236 38.7256 17.0853C36.7189 15.8384 32.5076 16.0343 30.2156 15.9752C29.3528 15.953 29.4439 16.4468 28.7901 16.6393C27.9415 16.8893 26.9086 16.1777 25.9807 16.3672C23.5565 16.8622 21.7681 18.0623 19.4985 19.1312C13.1859 22.104 8.89839 27.3406 5.37605 33.8448C3.80118 36.7528 1.77278 38.8176 3.97307 41.5144C5.34196 43.1921 6.33012 45.2214 8.5817 42.8448C9.28756 42.0998 13.4651 41.4618 14.0375 41.849C16.1837 43.3009 18.6848 43.5631 20.744 44.9561C24.3494 47.3952 26.0101 48.6731 26.7813 53.4888C27.1483 55.7802 28.4386 62.9574 31.8873 62.3446C34.8446 61.8191 34.9189 60.5304 37.2375 57.8616C40.4257 54.1919 42.2638 51.7783 43.9524 47.113C44.2103 46.4004 43.8379 45.4941 43.7362 44.7822C43.5976 43.8107 44.5109 42.8128 44.9014 41.9959C45.1326 41.5121 45.2325 38.7038 44.9594 38.4605C44.2349 37.8153 45.1095 35.9923 45.4703 35.2315C45.9495 34.2211 44.8368 32.973 45.5283 31.6962" stroke="#F47B50" stroke-width="3" stroke-linecap="round"/>
</svg>
